<svg xmlns="http://www.w3.org/2000/svg" viewBox="0 0 122.88 99.7">
    <path d="M11.14,41.09A14.74,14.74,0,0,1,9.08,29.66a20.65,20.65,0,0,1,4-8.46,21.64,21.64,0,0,1,7.37-6.06A17.13,17.13,0,0,1,33.28,14a15.88,15.88,0,0,1,7-9.75A26,26,0,0,1,50.87.33a29.13,29.13,0,0,1,11.34.5C66.71,2,70.63,4.29,73,7.85A18.6,18.6,0,0,1,85.93,4.46,27.45,27.45,0,0,1,96.41,7.51a23.2,23.2,0,0,1,8.14,6.82,14.69,14.69,0,0,1,2.89,10.34,15.75,15.75,0,0,1,13.21,8.92,20.43,20.43,0,0,1,2.15,7.48,20.14,20.14,0,0,1-.82,7.8c-1.81,5.73-6.31,10.58-14,12a15.93,15.93,0,0,1-2,8.53,23.52,23.52,0,0,1-8.78,8.8,25.37,25.37,0,0,1-12.74,3.53A22.67,22.67,0,0,1,71.07,77.3c-3.9,3.41-10.59,5.06-17.16,4.93a34.52,34.52,0,0,1-8.32-1.14,21.52,21.52,0,0,1-7.11-3.26,11.24,11.24,0,0,1-4.35-6c-7.44,1.63-13.53.48-18.08-2.23A19.46,19.46,0,0,1,6.58,52.76a17.28,17.28,0,0,1,4.56-11.67ZM7.68,87.85a9.11,9.11,0,0,1,5.18,1.53,5.1,5.1,0,0,1,0,8.79A9.11,9.11,0,0,1,7.68,99.7a9.08,9.08,0,0,1-5.17-1.53,5.1,5.1,0,0,1,0-8.79,9.08,9.08,0,0,1,5.17-1.53Zm3,4.6a5.38,5.38,0,0,0-3-.84,5.37,5.37,0,0,0-3,.84,1.43,1.43,0,0,0,0,2.65,5.37,5.37,0,0,0,3,.85,5.38,5.38,0,0,0,3-.85,1.43,1.43,0,0,0,0-2.65ZM25.87,76.37A12.62,12.62,0,0,1,33,78.48a6.69,6.69,0,0,1,0,11.57,12.62,12.62,0,0,1-7.16,2.1,12.65,12.65,0,0,1-7.17-2.1,6.69,6.69,0,0,1,0-11.57,12.66,12.66,0,0,1,7.17-2.11Zm5,5.18a8.84,8.84,0,0,0-5-1.42,8.85,8.85,0,0,0-5,1.42,3,3,0,0,0,0,5.43,8.92,8.92,0,0,0,5,1.41,8.91,8.91,0,0,0,5-1.41,3,3,0,0,0,0-5.43ZM13.66,30.6a10.07,10.07,0,0,0,2.28,9l.18.2a2.34,2.34,0,0,1-.34,3.3,12.45,12.45,0,0,0-4.52,9.66,14.82,14.82,0,0,0,7.2,12.82c4,2.4,9.73,3.22,17,1.07a2.61,2.61,0,0,1,.69-.09A2.34,2.34,0,0,1,38.44,69a6.14,6.14,0,0,0,2.83,5.08,16.88,16.88,0,0,0,5.53,2.49,30.19,30.19,0,0,0,7.18,1c6.28.12,12.51-1.48,15-4.81l.12-.14a2.33,2.33,0,0,1,3.3-.24A18.29,18.29,0,0,0,84.48,77a20.63,20.63,0,0,0,10.37-2.89,18.71,18.71,0,0,0,7-7,10.78,10.78,0,0,0,1.24-7.64A2.1,2.1,0,0,1,103,59a2.34,2.34,0,0,1,2.17-2.51c6.9-.52,10.85-4.38,12.32-9a15.78,15.78,0,0,0-1-11.72,11.3,11.3,0,0,0-11.74-6.32,2.34,2.34,0,0,1-2.47-3.08,10,10,0,0,0-1.55-9.27,18.37,18.37,0,0,0-6.49-5.42,22.85,22.85,0,0,0-8.66-2.51c-4.46-.35-8.77.82-11.44,4.08a2.38,2.38,0,0,1-1,.72,2.34,2.34,0,0,1-3-1.45c-1.28-3.67-4.79-6-9.05-7.11A24.67,24.67,0,0,0,51.55,5,21.23,21.23,0,0,0,42.9,8.13a11,11,0,0,0-5.31,9.1,2.19,2.19,0,0,1-.26,1.16,2.33,2.33,0,0,1-3.15,1,12.59,12.59,0,0,0-11.67-.06,16.8,16.8,0,0,0-5.75,4.75,16,16,0,0,0-3.1,6.51Z"/>
</svg>