<svg xmlns="http://www.w3.org/2000/svg" viewBox="0 0 1000 1000">
    <path d="M500,163.1c-183.8,0-398.1,122.5-490,367.5c91.9,183.8,275.6,306.3,490,306.3s398.1-122.5,490-306.3C898.1,285.6,683.8,163.1,500,163.1z M500,775.6c-183.8,0-336.9-122.5-367.5-245c30.6-122.5,183.8-245,367.5-245s336.9,122.5,367.5,245C836.9,653.1,683.8,775.6,500,775.6z M500,346.9c-19.1,0-36.4,3.8-53.6,8.6c31.6,14.4,53.6,45.9,53.6,83.3c0,50.7-41.2,91.9-91.9,91.9c-37.3,0-68.9-22-83.3-53.6c-4.8,17.2-8.6,34.5-8.6,53.6c0,101.4,82.3,183.8,183.8,183.8s183.8-82.3,183.8-183.8S601.4,346.9,500,346.9z"/>
</svg>
