<svg version="1.1" xmlns="http://www.w3.org/2000/svg" xmlns:xlink="http://www.w3.org/1999/xlink" width="48.96331" height="85.00633" viewBox="0,0,48.96331,85.00633"><g transform="translate(-215.95964,-139.24567)"><g data-paper-data="{&quot;isPaintingLayer&quot;:true}" fill-rule="nonzero" stroke-linecap="butt" stroke-linejoin="miter" stroke-miterlimit="10" stroke-dasharray="" stroke-dashoffset="0" style="mix-blend-mode: normal"><g data-paper-data="{&quot;index&quot;:null}"><path d="M264.06762,222.385c0,0 -34.805,4.702 -43.274,-18.007c-8.363,-22.421 2.835,-31.239 2.835,-31.239c0,0 26.362,-6.339 30.489,-1.483c4.128,4.856 9.95,50.729 9.95,50.729" fill="#c7b4b0" stroke="none" stroke-width="1"/><path d="M263.47562,222.386c0,0 -35.961,5.204 -43.622,-20.698c-6.699,-22.645 5.104,-29.595 5.104,-29.595c0,0 15.312,-5.118 31.513,-1.531c0.577,0.7 7.589,4.331 7.005,51.824z" fill="none" stroke="#362f52" stroke-width="0.5"/><path d="M225.57862,204.556c0,0 0.446,1.306 1.494,3.075c0.246,0.45 0.567,0.906 0.883,1.401c0.353,0.47 0.692,0.99 1.104,1.481c0.201,0.25 0.405,0.504 0.612,0.762c0.222,0.243 0.448,0.489 0.675,0.738c0.439,0.512 0.959,0.962 1.448,1.44c0.492,0.476 1.039,0.893 1.547,1.337c0.534,0.413 1.083,0.79 1.602,1.171c0.538,0.354 1.074,0.672 1.572,0.991c0.247,0.164 0.498,0.306 0.748,0.428c0.247,0.129 0.486,0.253 0.715,0.373c0.463,0.231 0.871,0.48 1.263,0.634c0.387,0.169 0.724,0.315 1.001,0.437c0.554,0.247 0.871,0.388 0.871,0.388c0,0 -0.327,-0.117 -0.898,-0.322c-0.286,-0.105 -0.632,-0.232 -1.029,-0.378c-0.406,-0.13 -0.828,-0.355 -1.301,-0.574c-0.236,-0.112 -0.481,-0.228 -0.735,-0.35c-0.258,-0.115 -0.516,-0.248 -0.771,-0.404c-0.514,-0.303 -1.072,-0.602 -1.617,-0.958c-0.53,-0.38 -1.092,-0.755 -1.637,-1.168c-0.521,-0.442 -1.081,-0.859 -1.585,-1.337c-0.491,-0.491 -1.012,-0.954 -1.451,-1.478c-0.227,-0.255 -0.453,-0.507 -0.676,-0.757c-0.206,-0.263 -0.409,-0.523 -0.609,-0.779c-0.418,-0.499 -0.737,-1.043 -1.077,-1.53c-0.3,-0.512 -0.606,-0.983 -0.838,-1.447c-0.119,-0.229 -0.234,-0.449 -0.342,-0.658c-0.097,-0.215 -0.189,-0.418 -0.275,-0.61c-0.174,-0.382 -0.299,-0.726 -0.408,-1.006c-0.205,-0.566 -0.286,-0.9 -0.286,-0.9" fill="#362f52" stroke="none" stroke-width="1"/></g><g data-paper-data="{&quot;index&quot;:null}"><path d="M243.89862,221.082c0,0 0.111,1.039 0.111,2.92h-13.182c0,0 2.452,-3.018 6.591,-4.232c0,0 2.108,0.995 6.236,1.498" fill="#e09d73" stroke="none" stroke-width="1"/><path d="M243.61862,221.563c0,0 0.391,0.558 0.391,2.439h-13.182c0,0 2.31,-2.868 6.472,-4.268c0,0 3.354,1.206 6.154,1.793" fill="none" stroke="#362f52" stroke-width="0.5"/></g><g data-paper-data="{&quot;index&quot;:null}"><path d="M249.16962,223.981h-13.182c0,0 2.595,-2.603 5.68,-3.785c0,0 2.863,1.05 7.146,1.05c0,0 0.356,0.854 0.356,2.735" fill="#e09d73" stroke="none" stroke-width="1"/><path d="M249.16962,223.981h-13.182c0,0 2.595,-2.603 5.68,-3.785c0,0 2.863,1.05 7.146,1.05c0,0 0.356,0.854 0.356,2.735z" fill="none" stroke="#362f52" stroke-width="0.5"/></g><g data-paper-data="{&quot;index&quot;:null}"><path d="M224.50462,148.926c0,0 5.037,-2.066 11.542,-2.332c7.208,-0.294 17.187,3.113 18.474,5.112c1.288,1.998 2.651,5.142 2.651,9.155c0,4.014 -1.037,6.117 -1.037,7.64c0,1.523 1.979,0.42 -2.714,3.538c-3.326,2.208 -12.816,5.96 -24.068,5.959c-2.972,-0.001 -4.814,-0.21 -5.939,-0.511c0,0 -0.188,-2.472 -0.264,-3c-0.073,-0.502 0.24,-0.723 -0.089,-1.101c-0.888,-1.019 -5.445,-6.411 -5.445,-12.723c0,-6.312 2.75,-10.031 6.889,-11.737" fill="#a77e76" stroke="none" stroke-width="1"/><path d="M222.96162,173.231c-1.643,-1.521 -5.516,-7.482 -5.349,-11.725c0.178,-4.509 1.162,-8.726 4.231,-11.035c3.07,-2.309 8.529,-3.884 14.92,-3.884c9.335,0 15.872,3.019 17.745,5.119c1.873,2.1 2.672,6.255 2.672,10.281c0,4.025 -1.908,5.95 -0.665,7.306c1.242,1.356 -11.159,8.706 -26.672,8.706c-3.368,0 -6.504,-0.095 -6.434,-0.648c0.095,-0.741 -0.448,-4.12 -0.448,-4.12z" fill="none" stroke="#362f52" stroke-width="0.5"/></g><g data-paper-data="{&quot;index&quot;:null}"><path d="M254.07362,140.867c0,0 -6.213,10.483 -16.794,10.631z" fill="#4b3a42" stroke="none" stroke-width="1"/><path d="M234.00362,153.431c-0.138,0.025 20.505,-12.994 20.505,-12.994c0,0 -5.814,10.369 -20.505,12.994z" fill="none" stroke="#362f52" stroke-width="0.5265"/></g><g data-paper-data="{&quot;index&quot;:null}"><path d="M225.94462,151.423c-5.754,-0.147 -9.133,-10.631 -9.133,-10.631l9.133,10.631" fill="#4b3a42" stroke="none" stroke-width="1"/><path d="M227.72662,153.356c-7.989,-2.625 -11.151,-12.993 -11.151,-12.993c0,0 11.227,13.018 11.151,12.993" fill="none" stroke="#362f52" stroke-width="0.5265"/></g><g data-paper-data="{&quot;index&quot;:null}"><path d="M229.52862,160.632c0,5.611 -2.667,10.161 -5.958,10.161c-3.291,0 -5.958,-4.55 -5.958,-10.161c0,-5.612 2.667,-10.161 5.958,-10.161c3.291,0 5.958,4.549 5.958,10.161" fill="#c4afad" stroke="none" stroke-width="1"/><path d="M226.15562,160.861c0,2.381 -1.132,4.31 -2.527,4.31c-1.396,0 -2.527,-1.929 -2.527,-4.31c0,-2.38 1.131,-4.309 2.527,-4.309c1.395,0 2.527,1.929 2.527,4.309" fill="#fccf87" stroke="none" stroke-width="1"/><path d="M222.06962,160.971c0,-1.498 0.712,-2.713 1.591,-2.713c0.878,0 1.591,1.215 1.591,2.713c0,1.498 -0.713,2.713 -1.591,2.713c-0.879,0 -1.591,-1.215 -1.591,-2.713" fill="#362f52" stroke="none" stroke-width="1"/><path d="M223.62862,165.083c-1.396,0 -2.527,-1.929 -2.527,-4.309c0,-2.38 1.131,-4.309 2.527,-4.309c1.395,0 2.527,1.929 2.527,4.309c0,2.38 -1.132,4.309 -2.527,4.309z" fill="none" stroke="#605579" stroke-width="0.5"/><path d="M223.60062,170.835c-3.295,0 -5.965,-4.555 -5.965,-10.172c0,-5.618 2.67,-10.172 5.965,-10.172c3.294,0 5.964,4.554 5.964,10.172c0,5.617 -2.67,10.172 -5.964,10.172z" fill="none" stroke="#605579" stroke-width="0.5265"/><path d="M222.96162,155.83c0,0 -0.078,-0.261 -0.163,-0.656c-0.083,-0.396 -0.182,-0.926 -0.251,-1.459c-0.072,-0.533 -0.116,-1.07 -0.137,-1.474c-0.021,-0.404 -0.014,-0.676 -0.014,-0.676c0,0 0.078,0.261 0.163,0.657c0.084,0.395 0.182,0.925 0.252,1.459c0.071,0.532 0.114,1.069 0.136,1.473c0.021,0.404 0.014,0.676 0.014,0.676" fill="#605579" stroke="none" stroke-width="1"/><path d="M224.73662,170.125c0,0 -0.073,-0.263 -0.151,-0.662c-0.076,-0.399 -0.166,-0.933 -0.226,-1.47c-0.062,-0.536 -0.095,-1.076 -0.11,-1.481c-0.013,-0.406 -0.001,-0.679 -0.001,-0.679c0,0 0.073,0.263 0.15,0.662c0.078,0.399 0.166,0.933 0.226,1.469c0.062,0.537 0.095,1.076 0.11,1.482c0.014,0.406 0.002,0.679 0.002,0.679" fill="#605579" stroke="none" stroke-width="1"/><path d="M220.21462,168.312c0,0 0.063,-0.229 0.187,-0.559c0.124,-0.33 0.302,-0.764 0.507,-1.186c0.203,-0.422 0.432,-0.832 0.613,-1.135c0.181,-0.303 0.323,-0.496 0.323,-0.496c0,0 -0.064,0.229 -0.188,0.559c-0.124,0.33 -0.302,0.764 -0.508,1.185c-0.202,0.423 -0.431,0.833 -0.613,1.136c-0.181,0.303 -0.321,0.496 -0.321,0.496" fill="#605579" stroke="none" stroke-width="1"/><path d="M218.77962,165.373c0,0 0.118,-0.149 0.316,-0.347c0.197,-0.199 0.47,-0.452 0.761,-0.683c0.289,-0.233 0.597,-0.444 0.835,-0.594c0.238,-0.149 0.41,-0.232 0.41,-0.232c0,0 -0.118,0.149 -0.316,0.347c-0.197,0.199 -0.47,0.452 -0.761,0.683c-0.29,0.233 -0.598,0.443 -0.835,0.593c-0.238,0.149 -0.41,0.233 -0.41,0.233" fill="#605579" stroke="none" stroke-width="1"/><path d="M218.03362,161.952c0,0 0.151,-0.069 0.385,-0.142c0.234,-0.072 0.548,-0.155 0.867,-0.209c0.318,-0.058 0.642,-0.086 0.887,-0.097c0.245,-0.011 0.411,0.003 0.411,0.003c0,0 -0.152,0.069 -0.385,0.142c-0.234,0.073 -0.548,0.155 -0.867,0.21c-0.318,0.057 -0.642,0.085 -0.887,0.096c-0.245,0.011 -0.411,-0.003 -0.411,-0.003" fill="#605579" stroke="none" stroke-width="1"/><path d="M218.21662,157.877c0,0 0.173,0.038 0.418,0.123c0.245,0.085 0.565,0.211 0.873,0.364c0.309,0.15 0.604,0.326 0.82,0.468c0.217,0.141 0.352,0.255 0.352,0.255c0,0 -0.173,-0.038 -0.418,-0.124c-0.245,-0.085 -0.566,-0.211 -0.873,-0.364c-0.308,-0.15 -0.604,-0.327 -0.821,-0.468c-0.217,-0.142 -0.351,-0.254 -0.351,-0.254" fill="#605579" stroke="none" stroke-width="1"/><path d="M219.71962,153.965c0,0 0.146,0.182 0.336,0.47c0.19,0.289 0.431,0.679 0.646,1.083c0.217,0.404 0.408,0.82 0.542,1.138c0.134,0.317 0.204,0.539 0.204,0.539c0,0 -0.146,-0.182 -0.336,-0.47c-0.19,-0.288 -0.431,-0.679 -0.646,-1.084c-0.217,-0.403 -0.408,-0.82 -0.542,-1.137c-0.134,-0.318 -0.204,-0.539 -0.204,-0.539" fill="#605579" stroke="none" stroke-width="1"/><path d="M225.22462,151.885c0,0 -0.008,0.267 -0.05,0.663c-0.043,0.396 -0.113,0.921 -0.214,1.441c-0.096,0.521 -0.222,1.035 -0.327,1.419c-0.106,0.385 -0.197,0.637 -0.197,0.637c0,0 0.007,-0.267 0.049,-0.663c0.043,-0.396 0.114,-0.921 0.214,-1.441c0.097,-0.521 0.224,-1.035 0.328,-1.42c0.105,-0.384 0.197,-0.636 0.197,-0.636" fill="#605579" stroke="none" stroke-width="1"/><path d="M227.51462,154.252c0,0 -0.094,0.191 -0.258,0.46c-0.166,0.267 -0.398,0.616 -0.654,0.947c-0.253,0.333 -0.53,0.648 -0.746,0.878c-0.217,0.23 -0.378,0.371 -0.378,0.371c0,0 0.093,-0.192 0.258,-0.46c0.165,-0.268 0.398,-0.616 0.654,-0.947c0.253,-0.333 0.53,-0.648 0.747,-0.878c0.216,-0.23 0.377,-0.371 0.377,-0.371" fill="#605579" stroke="none" stroke-width="1"/><path d="M228.71862,157.728c0,0 -0.127,0.13 -0.336,0.298c-0.208,0.167 -0.495,0.379 -0.796,0.566c-0.3,0.19 -0.616,0.355 -0.859,0.47c-0.242,0.115 -0.416,0.174 -0.416,0.174c0,0 0.128,-0.131 0.337,-0.299c0.208,-0.168 0.494,-0.379 0.795,-0.566c0.3,-0.19 0.617,-0.354 0.859,-0.469c0.243,-0.115 0.416,-0.174 0.416,-0.174" fill="#605579" stroke="none" stroke-width="1"/><path d="M228.91362,161.843c0,0 -0.16,0.042 -0.4,0.074c-0.24,0.032 -0.561,0.061 -0.881,0.06c-0.321,0.002 -0.641,-0.025 -0.882,-0.055c-0.24,-0.031 -0.4,-0.073 -0.4,-0.073c0,0 0.16,-0.043 0.4,-0.075c0.24,-0.032 0.56,-0.06 0.882,-0.059c0.32,-0.003 0.641,0.025 0.881,0.055c0.24,0.031 0.4,0.073 0.4,0.073" fill="#605579" stroke="none" stroke-width="1"/><path d="M228.26562,165.831c0,0 -0.17,-0.094 -0.406,-0.259c-0.233,-0.164 -0.537,-0.393 -0.821,-0.645c-0.286,-0.249 -0.553,-0.52 -0.745,-0.731c-0.193,-0.212 -0.307,-0.368 -0.307,-0.368c0,0 0.171,0.093 0.406,0.258c0.235,0.164 0.539,0.394 0.822,0.645c0.286,0.25 0.552,0.521 0.746,0.732c0.192,0.211 0.305,0.368 0.305,0.368" fill="#605579" stroke="none" stroke-width="1"/><path d="M222.48962,170.141c0,0 -0.019,-0.274 -0.015,-0.682c0.004,-0.408 0.023,-0.951 0.072,-1.492c0.046,-0.54 0.121,-1.078 0.189,-1.481c0.068,-0.402 0.134,-0.669 0.134,-0.669c0,0 0.019,0.274 0.015,0.682c-0.003,0.408 -0.023,0.951 -0.073,1.491c-0.046,0.541 -0.122,1.079 -0.189,1.481c-0.067,0.403 -0.133,0.67 -0.133,0.67" fill="#605579" stroke="none" stroke-width="1"/><path d="M226.79362,168.609c0,0 -0.13,-0.21 -0.297,-0.536c-0.165,-0.328 -0.372,-0.768 -0.552,-1.218c-0.183,-0.451 -0.339,-0.912 -0.445,-1.261c-0.106,-0.35 -0.157,-0.591 -0.157,-0.591c0,0 0.131,0.21 0.296,0.536c0.167,0.327 0.373,0.767 0.553,1.218c0.183,0.451 0.337,0.912 0.444,1.261c0.106,0.35 0.158,0.591 0.158,0.591" fill="#605579" stroke="none" stroke-width="1"/><path d="M222.40062,160.218c0.037,-0.303 0.191,-0.534 0.345,-0.516c0.154,0.017 0.249,0.278 0.212,0.582c-0.036,0.303 -0.19,0.534 -0.344,0.516c-0.154,-0.018 -0.249,-0.279 -0.213,-0.582" fill="#ffffff" stroke="none" stroke-width="1"/></g><g data-paper-data="{&quot;index&quot;:null}"><path d="M230.20562,162.884c1.732,2.63 1.965,0.799 1.965,0.799l1.491,4.77c0,0 -7.783,0.108 -7.633,0c0.915,-2.437 4.177,-5.569 4.177,-5.569" fill="#e89b60" stroke="none" stroke-width="1"/><path d="M232.17062,163.683l1.491,4.77c0,0 -7.783,0.108 -7.633,0c0.915,-2.437 4.177,-5.569 4.177,-5.569c1.732,2.63 1.965,0.799 1.965,0.799z" fill="none" stroke="#615d7a" stroke-width="0.5"/></g><g data-paper-data="{&quot;index&quot;:null}"><path d="M251.34362,160.773c0,5.611 -4.615,10.161 -10.308,10.161c-5.693,0 -10.308,-4.55 -10.308,-10.161c0,-5.612 4.615,-10.161 10.308,-10.161c5.693,0 10.308,4.549 10.308,10.161" fill="#c4afad" stroke="none" stroke-width="1"/><path d="M245.50762,161.002c0,2.381 -1.957,4.31 -4.372,4.31c-2.415,0 -4.372,-1.929 -4.372,-4.31c0,-2.38 1.957,-4.309 4.372,-4.309c2.415,0 4.372,1.929 4.372,4.309" fill="#fccf87" stroke="none" stroke-width="1"/><path d="M237.51762,161.112c0,-1.498 1.232,-2.713 2.752,-2.713c1.52,0 2.752,1.215 2.752,2.713c0,1.498 -1.232,2.713 -2.752,2.713c-1.52,0 -2.752,-1.215 -2.752,-2.713" fill="#362f52" stroke="none" stroke-width="1"/><path d="M241.13562,165.224c-2.415,0 -4.372,-1.929 -4.372,-4.309c0,-2.38 1.957,-4.309 4.372,-4.309c2.415,0 4.372,1.929 4.372,4.309c0,2.38 -1.957,4.309 -4.372,4.309z" fill="none" stroke="#605579" stroke-width="0.5"/><path d="M241.08662,170.976c-5.7,0 -10.319,-4.555 -10.319,-10.172c0,-5.618 4.619,-10.172 10.319,-10.172c5.699,0 10.319,4.554 10.319,10.172c0,5.617 -4.62,10.172 -10.319,10.172z" fill="none" stroke="#605579" stroke-width="0.5265"/><path d="M239.98162,155.971c0,0 -0.102,-0.257 -0.225,-0.65c-0.122,-0.393 -0.272,-0.92 -0.393,-1.453c-0.124,-0.533 -0.218,-1.073 -0.279,-1.48c-0.06,-0.407 -0.079,-0.682 -0.079,-0.682c0,0 0.103,0.257 0.226,0.65c0.122,0.393 0.271,0.92 0.392,1.453c0.124,0.533 0.217,1.073 0.279,1.48c0.059,0.407 0.079,0.682 0.079,0.682" fill="#605579" stroke="none" stroke-width="1"/><path d="M243.05262,170.266c0,0 -0.094,-0.26 -0.205,-0.657c-0.11,-0.396 -0.244,-0.927 -0.348,-1.464c-0.107,-0.536 -0.185,-1.078 -0.234,-1.487c-0.047,-0.408 -0.058,-0.684 -0.058,-0.684c0,0 0.095,0.26 0.206,0.656c0.111,0.397 0.243,0.928 0.348,1.465c0.107,0.536 0.184,1.078 0.233,1.486c0.047,0.409 0.058,0.685 0.058,0.685" fill="#605579" stroke="none" stroke-width="1"/><path d="M235.22862,168.453c0,0 0.144,-0.238 0.383,-0.574c0.24,-0.336 0.571,-0.776 0.924,-1.197c0.351,-0.424 0.725,-0.828 1.014,-1.124c0.29,-0.297 0.499,-0.481 0.499,-0.481c0,0 -0.143,0.237 -0.383,0.575c-0.24,0.336 -0.571,0.775 -0.924,1.196c-0.351,0.423 -0.726,0.827 -1.014,1.124c-0.289,0.297 -0.499,0.481 -0.499,0.481" fill="#605579" stroke="none" stroke-width="1"/><path d="M232.74662,165.514c0,0 0.233,-0.154 0.596,-0.357c0.363,-0.202 0.853,-0.459 1.356,-0.69c0.501,-0.233 1.015,-0.441 1.406,-0.586c0.39,-0.146 0.659,-0.223 0.659,-0.223c0,0 -0.233,0.154 -0.596,0.357c-0.363,0.202 -0.853,0.459 -1.356,0.69c-0.501,0.233 -1.016,0.44 -1.405,0.586c-0.391,0.145 -0.66,0.223 -0.66,0.223" fill="#605579" stroke="none" stroke-width="1"/><path d="M231.45562,162.093c0,0 0.271,-0.069 0.681,-0.142c0.411,-0.073 0.96,-0.157 1.511,-0.211c0.552,-0.057 1.106,-0.085 1.524,-0.096c0.416,-0.01 0.696,0.004 0.696,0.004c0,0 -0.271,0.07 -0.681,0.143c-0.411,0.073 -0.96,0.156 -1.511,0.21c-0.552,0.057 -1.106,0.085 -1.523,0.096c-0.417,0.01 -0.697,-0.004 -0.697,-0.004" fill="#605579" stroke="none" stroke-width="1"/><path d="M231.77162,158.018c0,0 0.278,0.035 0.687,0.118c0.409,0.084 0.949,0.208 1.481,0.36c0.533,0.151 1.059,0.328 1.449,0.472c0.391,0.143 0.646,0.26 0.646,0.26c0,0 -0.279,-0.035 -0.687,-0.118c-0.409,-0.084 -0.949,-0.209 -1.481,-0.361c-0.533,-0.15 -1.059,-0.328 -1.449,-0.472c-0.39,-0.143 -0.646,-0.259 -0.646,-0.259" fill="#605579" stroke="none" stroke-width="1"/><path d="M234.37362,154.106c0,0 0.218,0.174 0.522,0.455c0.303,0.282 0.698,0.667 1.071,1.072c0.374,0.402 0.727,0.824 0.984,1.148c0.257,0.324 0.412,0.555 0.412,0.555c0,0 -0.219,-0.174 -0.522,-0.455c-0.304,-0.281 -0.699,-0.667 -1.071,-1.071c-0.375,-0.403 -0.727,-0.826 -0.985,-1.15c-0.256,-0.324 -0.411,-0.554 -0.411,-0.554" fill="#605579" stroke="none" stroke-width="1"/><path d="M243.89662,152.026c0,0 -0.045,0.273 -0.142,0.672c-0.098,0.4 -0.241,0.928 -0.413,1.448c-0.168,0.521 -0.366,1.032 -0.523,1.413c-0.159,0.38 -0.285,0.627 -0.285,0.627c0,0 0.044,-0.273 0.142,-0.673c0.098,-0.399 0.241,-0.928 0.413,-1.447c0.169,-0.521 0.367,-1.032 0.524,-1.413c0.158,-0.38 0.284,-0.627 0.284,-0.627" fill="#605579" stroke="none" stroke-width="1"/><path d="M247.86062,154.393c0,0 -0.194,0.199 -0.505,0.474c-0.312,0.273 -0.735,0.627 -1.176,0.958c-0.44,0.333 -0.897,0.644 -1.247,0.867c-0.35,0.224 -0.596,0.357 -0.596,0.357c0,0 0.194,-0.2 0.505,-0.474c0.311,-0.274 0.735,-0.628 1.176,-0.958c0.44,-0.333 0.898,-0.643 1.247,-0.867c0.35,-0.224 0.596,-0.357 0.596,-0.357" fill="#605579" stroke="none" stroke-width="1"/><path d="M249.94262,157.869c0,0 -0.245,0.133 -0.625,0.304c-0.379,0.171 -0.89,0.386 -1.411,0.573c-0.52,0.19 -1.05,0.352 -1.451,0.464c-0.402,0.112 -0.677,0.167 -0.677,0.167c0,0 0.246,-0.134 0.624,-0.305c0.38,-0.171 0.891,-0.385 1.412,-0.573c0.52,-0.189 1.051,-0.351 1.452,-0.464c0.401,-0.112 0.676,-0.166 0.676,-0.166" fill="#605579" stroke="none" stroke-width="1"/><path d="M250.28062,161.984c0,0 -0.277,0.042 -0.693,0.074c-0.416,0.032 -0.97,0.061 -1.525,0.06c-0.554,0.002 -1.109,-0.024 -1.524,-0.055c-0.417,-0.031 -0.693,-0.073 -0.693,-0.073c0,0 0.276,-0.043 0.692,-0.075c0.416,-0.032 0.971,-0.06 1.525,-0.059c0.555,-0.003 1.109,0.025 1.525,0.055c0.416,0.031 0.693,0.073 0.693,0.073" fill="#605579" stroke="none" stroke-width="1"/><path d="M249.15962,165.972c0,0 -0.266,-0.088 -0.651,-0.248c-0.384,-0.16 -0.89,-0.385 -1.382,-0.637c-0.493,-0.249 -0.974,-0.524 -1.329,-0.74c-0.355,-0.215 -0.581,-0.378 -0.581,-0.378c0,0 0.266,0.088 0.65,0.247c0.384,0.16 0.89,0.386 1.382,0.637c0.494,0.25 0.973,0.525 1.329,0.74c0.355,0.216 0.582,0.379 0.582,0.379" fill="#605579" stroke="none" stroke-width="1"/><path d="M239.16462,170.282c0,0 -0.001,-0.277 0.029,-0.687c0.031,-0.409 0.085,-0.954 0.169,-1.495c0.08,-0.54 0.19,-1.077 0.283,-1.478c0.094,-0.4 0.177,-0.664 0.177,-0.664c0,0 0.001,0.276 -0.028,0.687c-0.03,0.41 -0.086,0.954 -0.169,1.494c-0.081,0.541 -0.191,1.077 -0.284,1.478c-0.094,0.401 -0.177,0.665 -0.177,0.665" fill="#605579" stroke="none" stroke-width="1"/><path d="M246.61162,168.75c0,0 -0.192,-0.202 -0.454,-0.522c-0.261,-0.321 -0.598,-0.755 -0.911,-1.207c-0.314,-0.45 -0.605,-0.916 -0.814,-1.272c-0.209,-0.356 -0.33,-0.605 -0.33,-0.605c0,0 0.191,0.202 0.454,0.522c0.261,0.32 0.597,0.755 0.91,1.207c0.314,0.45 0.605,0.916 0.814,1.272c0.209,0.355 0.331,0.605 0.331,0.605" fill="#605579" stroke="none" stroke-width="1"/><path d="M238.37162,160.251c0,-0.306 0.251,-0.553 0.561,-0.553c0.31,0 0.561,0.247 0.561,0.553c0,0.305 -0.251,0.553 -0.561,0.553c-0.31,0 -0.561,-0.248 -0.561,-0.553" fill="#ffffff" stroke="none" stroke-width="1"/></g><g data-paper-data="{&quot;index&quot;:null}"><path d="M218.49062,195.784c-3.12,-14.087 4.311,-21.815 4.311,-21.815c2.467,8.034 -4.311,21.815 -4.311,21.815" fill="#a77e76" stroke="none" stroke-width="1"/><path d="M230.50162,166.053c0,0 -0.883,-0.378 -0.832,-1.656c0,0 0.903,0.417 0.832,1.656" fill="#615d7a" stroke="none" stroke-width="1"/><path d="M222.93362,173.827c2.318,8.121 -4.443,22.223 -4.443,22.223" fill="none" stroke="#362f52" stroke-width="0.5"/></g><g data-paper-data="{&quot;index&quot;:null}"><path d="M264.45962,222.931c0,0 -26.54,-14.041 -27.007,-32.561c-0.456,-18.069 14.482,-21.62 19.074,-21.328c0,0 7.384,8.279 7.916,18.484c0.533,10.205 0.017,35.405 0.017,35.405" fill="#a77e76" stroke="none" stroke-width="1"/><path d="M264.38262,222.931c0,0 -8.969,-5.382 -12.148,-8.438c0,0 -1.882,-13.083 5.284,-18.842c3.754,-3.017 7.165,-3.087 7.165,-3.087z" fill="#784451" stroke="none" stroke-width="1"/><path d="M264.45962,222.931c0,0 -26.942,-14.11 -26.942,-33.207c0,-19.096 16.822,-20.974 18.953,-20.651c0,0 7.323,7.395 7.989,19.142c0.48,8.473 0,29.072 0,34.716z" fill="none" stroke="#362f52" stroke-width="0.5"/><path d="M252.36162,214.663c-0.377,-0.679 -3.125,-19.579 12.247,-22.242" fill="none" stroke="#362f52" stroke-width="0.5"/><path d="M263.48262,192.813c0,0 -0.019,0.23 -0.054,0.632c-0.041,0.401 -0.064,0.976 -0.109,1.662c-0.042,0.687 -0.061,1.489 -0.066,2.345c-0.016,0.429 0.013,0.871 0.007,1.321c0.012,0.449 0.03,0.905 0.055,1.36c0.037,0.454 0.049,0.911 0.106,1.356c0.06,0.444 0.077,0.887 0.157,1.307c0.075,0.419 0.11,0.834 0.2,1.215c0.084,0.382 0.136,0.752 0.233,1.081c0.095,0.328 0.171,0.634 0.239,0.906c0.074,0.269 0.165,0.496 0.226,0.687c0.125,0.385 0.196,0.605 0.196,0.605c0,0 -0.106,-0.206 -0.292,-0.566c-0.086,-0.183 -0.207,-0.4 -0.317,-0.661c-0.104,-0.263 -0.223,-0.56 -0.34,-0.889c-0.125,-0.327 -0.208,-0.695 -0.324,-1.078c-0.123,-0.383 -0.196,-0.798 -0.283,-1.225c-0.095,-0.427 -0.145,-0.875 -0.207,-1.328c-0.062,-0.454 -0.082,-0.918 -0.125,-1.381c-0.042,-0.927 -0.051,-1.856 0.001,-2.723c0.04,-0.869 0.148,-1.673 0.237,-2.361c0.199,-1.374 0.46,-2.265 0.46,-2.265" fill="#362f52" stroke="none" stroke-width="1"/><path d="M260.48662,193.689c0,0 -0.03,0.335 -0.06,0.921c-0.042,0.585 -0.053,1.422 -0.067,2.425c0.003,0.501 -0.007,1.043 0.022,1.617c0.011,0.574 0.051,1.177 0.091,1.801c0.022,0.625 0.117,1.265 0.168,1.918c0.078,0.651 0.17,1.311 0.274,1.967c0.134,0.651 0.219,1.314 0.387,1.947c0.172,0.631 0.282,1.269 0.493,1.857c0.197,0.591 0.342,1.18 0.572,1.705c0.105,0.266 0.206,0.526 0.305,0.777c0.092,0.253 0.194,0.493 0.314,0.713c0.227,0.445 0.426,0.86 0.602,1.229c0.194,0.359 0.395,0.654 0.545,0.907c0.303,0.506 0.476,0.795 0.476,0.795c0,0 -0.205,-0.268 -0.563,-0.738c-0.172,-0.24 -0.402,-0.521 -0.629,-0.865c-0.211,-0.353 -0.45,-0.754 -0.7,-1.197c-0.134,-0.218 -0.25,-0.455 -0.358,-0.707c-0.114,-0.249 -0.232,-0.507 -0.353,-0.772c-0.263,-0.523 -0.447,-1.109 -0.659,-1.709c-0.227,-0.595 -0.371,-1.236 -0.545,-1.88c-0.177,-0.644 -0.272,-1.314 -0.412,-1.977c-0.099,-0.668 -0.187,-1.339 -0.26,-2c-0.049,-0.662 -0.117,-1.314 -0.125,-1.947c-0.028,-0.632 -0.029,-1.243 -0.011,-1.822c0.004,-0.579 0.042,-1.126 0.067,-1.63c0.135,-2.017 0.426,-3.335 0.426,-3.335" fill="#362f52" stroke="none" stroke-width="1"/><path d="M256.78162,196.263c0,0 0.003,0.408 0.041,1.12c0.026,0.712 0.113,1.727 0.231,2.94c0.066,0.607 0.132,1.263 0.24,1.954c0.087,0.692 0.226,1.416 0.347,2.166c0.117,0.752 0.305,1.517 0.459,2.3c0.202,0.772 0.381,1.564 0.618,2.339c0.243,0.773 0.432,1.564 0.727,2.307c0.273,0.75 0.524,1.495 0.852,2.183c0.309,0.694 0.581,1.378 0.921,1.989c0.33,0.614 0.594,1.225 0.942,1.728c0.326,0.515 0.617,0.994 0.875,1.42c0.284,0.407 0.553,0.748 0.764,1.037c0.424,0.579 0.667,0.91 0.667,0.91c0,0 -0.272,-0.308 -0.748,-0.846c-0.232,-0.274 -0.529,-0.598 -0.844,-0.988c-0.292,-0.407 -0.621,-0.868 -0.97,-1.378c-0.374,-0.496 -0.668,-1.097 -1.03,-1.706c-0.372,-0.605 -0.686,-1.281 -1.001,-1.985c-0.343,-0.694 -0.609,-1.445 -0.897,-2.201c-0.309,-0.75 -0.515,-1.547 -0.771,-2.327c-0.228,-0.79 -0.396,-1.593 -0.59,-2.377c-0.144,-0.794 -0.322,-1.57 -0.429,-2.331c-0.12,-0.758 -0.217,-1.494 -0.276,-2.196c-0.077,-0.699 -0.115,-1.363 -0.154,-1.975c-0.07,-1.225 -0.053,-2.248 -0.036,-2.962c0.018,-0.715 0.062,-1.121 0.062,-1.121" fill="#362f52" stroke="none" stroke-width="1"/><path d="M253.35862,201.688c0,0 0.02,0.383 0.102,1.046c0.08,0.663 0.228,1.606 0.477,2.721c0.107,0.561 0.278,1.156 0.443,1.788c0.188,0.626 0.391,1.285 0.621,1.958c0.245,0.669 0.48,1.368 0.795,2.047c0.152,0.342 0.293,0.692 0.456,1.034c0.172,0.336 0.346,0.674 0.52,1.012c0.315,0.693 0.731,1.332 1.101,1.983c0.179,0.329 0.387,0.638 0.6,0.937c0.209,0.303 0.415,0.602 0.617,0.896c0.192,0.302 0.416,0.573 0.631,0.842c0.213,0.271 0.421,0.536 0.623,0.793c0.39,0.531 0.828,0.973 1.217,1.395c0.401,0.411 0.73,0.829 1.077,1.141c0.342,0.32 0.641,0.599 0.887,0.829c0.488,0.466 0.767,0.731 0.767,0.731c0,0 -0.303,-0.237 -0.835,-0.654c-0.265,-0.211 -0.586,-0.469 -0.954,-0.763c-0.377,-0.287 -0.738,-0.679 -1.158,-1.079c-0.414,-0.408 -0.879,-0.836 -1.298,-1.353c-0.218,-0.252 -0.442,-0.511 -0.67,-0.775c-0.236,-0.26 -0.458,-0.539 -0.661,-0.84c-0.211,-0.296 -0.425,-0.596 -0.642,-0.901c-0.221,-0.302 -0.437,-0.612 -0.625,-0.943c-0.387,-0.656 -0.821,-1.3 -1.151,-2.001c-0.172,-0.347 -0.343,-0.694 -0.513,-1.039c-0.161,-0.35 -0.298,-0.708 -0.447,-1.058c-0.309,-0.696 -0.537,-1.408 -0.775,-2.091c-0.232,-0.685 -0.396,-1.366 -0.558,-2.007c-0.136,-0.648 -0.28,-1.256 -0.362,-1.828c-0.106,-0.567 -0.157,-1.093 -0.204,-1.559c-0.042,-0.466 -0.067,-0.873 -0.081,-1.208c-0.026,-0.671 0,-1.054 0,-1.054" fill="#362f52" stroke="none" stroke-width="1"/></g></g></g></svg>