<svg width="5000" height="5000" xmlns="http://www.w3.org/2000/svg">
    <path transform="rotate(-180 2500 2467.58)" stroke="null" fill="#000000" d="m1992.47159,3846.99157c-280.43895,-36.7388 -568.43182,-157.62132 -814.87817,-341.31533c-149.18975,-110.21641 -268.16385,-227.54355 -399.41306,-391.09048c-169.963,-214.5072 -280.43895,-410.05244 -386.19371,-682.63066c-120.86258,-312.87239 -183.18235,-609.15305 -195.45745,-932.69154l-5.66543,-151.6957l194.51321,0c226.61734,0 200.17865,-21.33221 208.6768,167.1023c19.82902,447.97637 211.50951,955.20887 483.45032,1279.93249c442.84804,526.19447 1066.04572,703.96287 1637.31026,465.75321c471.17521,-196.73036 853.59197,-667.22406 1014.11258,-1247.93417c18.88478,-67.55199 33.04836,-124.43788 32.10412,-125.623c-1.88848,-2.37025 -134.08192,65.18175 -295.54678,149.32546c-160.52061,84.14371 -294.60254,152.88082 -297.43525,152.88082c-6.60967,0 -154.85518,-449.16149 -150.13399,-455.08711c1.88848,-2.37025 103.86628,-55.70077 225.6731,-119.69739c121.80682,-62.8115 357.86654,-186.06426 524.05259,-272.57821c465.50978,-242.95015 516.49868,-267.83772 518.38716,-264.28236c1.88848,2.37025 119.91834,357.90705 262.49841,791.66195l260.60994,788.10658l-39.65803,22.51733c-20.77326,13.03635 -102.92204,55.70077 -182.23811,97.18006l-142.58007,73.47761l-139.74736,-421.90367c-76.48335,-233.46917 -141.63584,-427.82928 -145.41279,-432.56978c-3.77696,-5.92561 -22.66173,49.77515 -42.49075,124.43788c-251.16755,950.46838 -911.19054,1618.87757 -1706.2397,1726.72373c-104.81052,15.40659 -306.87764,14.22147 -418.29783,0z"/>
</svg>