<svg xmlns="http://www.w3.org/2000/svg" viewBox="0 -6000 6789 5800">
  <path fill="#000000" d="M 5382.9253 -4926.0383 c -112.4258 34.7172 -190.7449 85.7721 -274.1169 176.9899 c -142.1113 155.2065 -229.9045 371.6789 -259.5899 640.5674 c -21.4745 197.4119 1.2632 368.9559 70.1082 525.5239 c 33.475 76.9224 57.4761 115.7242 106.7414 170.8633 c 89.0563 100.0674 186.9553 151.1221 292.4334 151.1221 c 58.7393 0 100.4252 -12.2532 166.1122 -47.651 c 229.2728 -123.8929 390.9638 -401.631 433.2814 -741.9963 c 17.0533 -138.8691 5.6844 -342.4074 -26.5275 -460.8545 c -51.7917 -192.6467 -177.4812 -347.1725 -329.0665 -404.3539 c -46.7388 -17.699 -138.9533 -23.1448 -179.376 -10.211 z M 3874.0195 -4902.8935 c -153.4801 54.4585 -280.4329 217.153 -328.4349 420.6914 c -6.9476 27.91 -15.7901 96.6637 -20.2114 152.4836 c -25.2643 334.9195 81.4771 675.2847 278.538 884.9496 c 78.3191 83.7299 189.4817 155.8872 278.538 181.0743 c 127.5844 36.0787 295.5914 -43.5668 387.8059 -183.7972 c 88.4248 -134.1039 130.1107 -290.6719 130.1107 -490.8067 c 0 -118.4471 -11.369 -212.3879 -37.8963 -321.9855 c -77.6876 -320.624 -247.5894 -545.9458 -480.0202 -634.4408 c -56.8445 -21.7834 -158.5329 -25.8677 -208.4299 -8.1688 z M 6312.0171 -3604.0597 c -146.5325 33.3557 -296.223 143.6342 -397.9115 291.3526 c -101.0569 148.3993 -162.3227 315.1783 -189.4817 515.9937 c -15.1585 113.6819 -15.7901 158.6101 -3.1581 243.7015 c 20.2114 134.1039 70.7398 249.1474 145.2694 330.1543 c 51.7917 56.5007 101.0569 89.1756 162.9542 106.1939 c 140.2165 40.1631 322.7504 -26.5484 467.3882 -170.8633 c 93.4776 -92.5793 193.2713 -265.4849 238.1153 -413.2034 c 41.686 -135.4652 61.8974 -309.0516 50.5284 -428.1794 c -10.1057 -106.1939 -49.2653 -224.641 -100.4252 -304.9672 c -17.685 -27.91 -71.3714 -86.4528 -101.6885 -111.6398 c -72.0031 -59.9042 -173.0599 -81.6876 -271.5905 -58.5428 z M 3043.4581 -3521.6914 c -161.0594 26.5484 -282.9593 139.5498 -325.2768 301.5635 c -31.5803 122.5315 -39.1595 252.5509 -21.4745 380.5284 c 30.9487 226.0025 122.5315 429.5409 261.4847 579.9824 c 95.3724 102.7903 183.1657 162.0139 303.1707 204.9 c 142.1113 49.6934 267.8008 13.6146 370.1209 -105.5133 c 87.1616 -101.4288 120.6366 -205.5806 126.9527 -396.1851 c 2.5264 -85.0912 1.2632 -116.4048 -10.1057 -186.5201 c -34.7382 -219.8759 -122.5315 -404.3539 -265.2744 -559.5604 c -96.0041 -104.1517 -207.1667 -182.4357 -293.065 -206.2613 c -37.8963 -10.8917 -118.1101 -17.699 -146.5325 -12.9338 z M 4677.4218 -2648.3141 c -297.4862 40.8438 -587.3933 226.0025 -769.9271 493.5296 c -154.7434 226.0025 -274.1169 460.8545 -351.8043 693.6643 c -52.4232 155.8872 -98.5305 362.8293 -98.5305 443.8363 c 0 183.7972 109.2677 366.233 258.9583 432.2639 c 57.4761 25.1871 128.8475 36.0787 195.7978 29.9522 c 120.6366 -10.211 202.7453 -34.0366 420.0178 -122.5315 c 232.4309 -94.6214 292.4334 -112.3205 431.3866 -130.0195 c 190.1134 -24.5063 317.066 4.0844 594.9725 132.0617 c 245.6946 113.0013 301.2758 130.7002 404.2276 130.7002 c 192.6397 0 346.7515 -108.9168 393.4903 -277.738 c 16.4218 -61.2657 17.685 -213.7493 1.8948 -283.8646 c -39.7912 -176.9899 -112.4258 -354.6606 -223.5883 -547.9879 c -249.4842 -433.6252 -442.1239 -673.9233 -673.9231 -840.7021 c -102.9516 -74.1996 -200.8507 -119.1278 -313.2764 -142.9534 c -58.1077 -12.9338 -208.4299 -18.3797 -269.6955 -10.211 z M 800 -200 V -4000 H  0 L 1200,-6000 L 2400,-4000 L 1600,-4000 V -200 z" />
</svg>