<svg version="1.1" xmlns="http://www.w3.org/2000/svg" xmlns:xlink="http://www.w3.org/1999/xlink" width="63.63285" height="67.94952" viewBox="0,0,63.63285,67.94952"><g transform="translate(-211.59703,-129.87726)"><g data-paper-data="{&quot;isPaintingLayer&quot;:true}" fill-rule="nonzero" stroke-linecap="butt" stroke-linejoin="miter" stroke-miterlimit="10" stroke-dasharray="" stroke-dashoffset="0" style="mix-blend-mode: normal"><path d="M274.97988,161.41737c0,-17.26939 -14.12805,-31.269 -31.55587,-31.269c-17.42783,0 -31.55588,13.99961 -31.55588,31.269c0,17.26939 14.12805,31.269 31.55588,31.269c17.42783,0 31.55587,-13.99961 31.55587,-31.269z" fill="#ffffff" stroke="#000000" stroke-width="0.5"/><g><path d="M227.142,171.656c4.127,-4.856 30.489,1.483 30.489,1.483c0,0 4.87631,3.83991 5.79003,12.89475c-1.01553,0.09937 -2.89321,1.20429 -4.43494,2.62258c-1.09523,0.65028 -2.03414,1.27531 -2.41606,1.44174c-4.8101,2.09608 -10.20127,2.75157 -15.50698,2.59552c-2.24325,-0.06598 -5.48358,-0.63213 -8.41909,-1.62655c-0.45094,-0.65372 -1.2051,-1.08215 -2.05934,-1.08215c-0.10964,0 -0.21762,0.00706 -0.32353,0.02074c-0.13382,-0.0374 -0.27217,-0.06395 -0.41405,-0.07863c-0.99764,-0.49125 -1.88501,-1.04267 -2.5873,-1.65015c-0.80962,-0.70032 -2.86123,-2.24729 -4.2042,-2.95192c1.37617,-6.7612 2.81205,-12.16975 4.08647,-13.66892z" fill="#c7b4b0" stroke="none" stroke-width="1"/><path d="" fill="#c7b4b0" stroke="none" stroke-width="1"/><path d="" fill="#c7b4b0" stroke="none" stroke-width="1"/><path d="" fill="#c7b4b0" stroke="none" stroke-width="1"/><path d="M220.00797,182.83463c1.92923,-10.46477 4.44518,-11.86519 4.78103,-12.27263c16.201,-3.587 31.513,1.531 31.513,1.531c0,0 6.07129,3.57498 7.03373,13.95115" fill="none" stroke="#362f52" stroke-width="0.5"/><path d="" fill="#362f52" stroke="none" stroke-width="1"/></g><g><path d="M256.755,148.926c4.139,1.706 6.889,5.425 6.889,11.737c0,6.312 -4.557,11.704 -5.445,12.723c-0.329,0.378 -0.016,0.599 -0.089,1.101c-0.076,0.528 -0.264,3 -0.264,3c-1.125,0.301 -2.967,0.51 -5.939,0.511c-11.252,0.001 -20.742,-3.751 -24.068,-5.959c-4.693,-3.118 -2.714,-2.015 -2.714,-3.538c0,-1.523 -1.037,-3.626 -1.037,-7.64c0,-4.013 1.363,-7.157 2.651,-9.155c1.287,-1.999 11.266,-5.406 18.474,-5.112c6.505,0.266 11.542,2.332 11.542,2.332" fill="#a77e76" stroke="none" stroke-width="1"/><path d="M257.85,177.351c0.07,0.553 -3.066,0.648 -6.434,0.648c-15.513,0 -27.914,-7.35 -26.672,-8.706c1.243,-1.356 -0.665,-3.281 -0.665,-7.306c0,-4.026 0.799,-8.181 2.672,-10.281c1.873,-2.1 8.41,-5.119 17.745,-5.119c6.391,0 11.85,1.575 14.92,3.884c3.069,2.309 4.053,6.526 4.231,11.035c0.167,4.243 -3.706,10.204 -5.349,11.725c0,0 -0.543,3.379 -0.448,4.12z" fill="none" stroke="#362f52" stroke-width="0.5"/></g><g><path d="M243.98,151.498c-10.581,-0.148 -16.794,-10.631 -16.794,-10.631z" fill="#4b3a42" stroke="none" stroke-width="1"/><path d="M226.751,140.437c0,0 20.643,13.019 20.505,12.994c-14.691,-2.625 -20.505,-12.994 -20.505,-12.994z" fill="none" stroke="#362f52" stroke-width="0.5265"/></g><g><path d="M255.315,151.423l9.133,-10.631c0,0 -3.379,10.484 -9.133,10.631" fill="#4b3a42" stroke="none" stroke-width="1"/><path d="M253.533,153.356c-0.076,0.025 11.151,-12.993 11.151,-12.993c0,0 -3.162,10.368 -11.151,12.993" fill="none" stroke="#362f52" stroke-width="0.5265"/></g><g><path d="M251.731,160.632c0,-5.612 2.667,-10.161 5.958,-10.161c3.291,0 5.958,4.549 5.958,10.161c0,5.611 -2.667,10.161 -5.958,10.161c-3.291,0 -5.958,-4.55 -5.958,-10.161" fill="#c4afad" stroke="none" stroke-width="1"/><path d="M255.104,160.861c0,-2.38 1.132,-4.309 2.527,-4.309c1.396,0 2.527,1.929 2.527,4.309c0,2.381 -1.131,4.31 -2.527,4.31c-1.395,0 -2.527,-1.929 -2.527,-4.31" fill="#fccf87" stroke="none" stroke-width="1"/><path d="M259.19,160.971c0,1.498 -0.712,2.713 -1.591,2.713c-0.878,0 -1.591,-1.215 -1.591,-2.713c0,-1.498 0.713,-2.713 1.591,-2.713c0.879,0 1.591,1.215 1.591,2.713" fill="#362f52" stroke="none" stroke-width="1"/><path d="M255.104,160.774c0,-2.38 1.132,-4.309 2.527,-4.309c1.396,0 2.527,1.929 2.527,4.309c0,2.38 -1.131,4.309 -2.527,4.309c-1.395,0 -2.527,-1.929 -2.527,-4.309z" fill="none" stroke="#605579" stroke-width="0.5"/><path d="M251.695,160.663c0,-5.618 2.67,-10.172 5.964,-10.172c3.295,0 5.965,4.554 5.965,10.172c0,5.617 -2.67,10.172 -5.965,10.172c-3.294,0 -5.964,-4.555 -5.964,-10.172z" fill="none" stroke="#605579" stroke-width="0.5265"/><path d="M258.298,155.83c0,0 -0.007,-0.272 0.014,-0.676c0.022,-0.404 0.065,-0.941 0.136,-1.473c0.07,-0.534 0.168,-1.064 0.252,-1.459c0.085,-0.396 0.163,-0.657 0.163,-0.657c0,0 0.007,0.272 -0.014,0.676c-0.021,0.404 -0.065,0.941 -0.137,1.474c-0.069,0.533 -0.168,1.063 -0.251,1.459c-0.085,0.395 -0.163,0.656 -0.163,0.656" fill="#605579" stroke="none" stroke-width="1"/><path d="M256.523,170.125c0,0 -0.012,-0.273 0.002,-0.679c0.015,-0.406 0.048,-0.945 0.11,-1.482c0.06,-0.536 0.148,-1.07 0.226,-1.469c0.077,-0.399 0.15,-0.662 0.15,-0.662c0,0 0.012,0.273 -0.001,0.679c-0.015,0.405 -0.048,0.945 -0.11,1.481c-0.06,0.537 -0.15,1.071 -0.226,1.47c-0.078,0.399 -0.151,0.662 -0.151,0.662" fill="#605579" stroke="none" stroke-width="1"/><path d="M261.045,168.312c0,0 -0.14,-0.193 -0.321,-0.496c-0.182,-0.303 -0.411,-0.713 -0.613,-1.136c-0.206,-0.421 -0.384,-0.855 -0.508,-1.185c-0.124,-0.33 -0.188,-0.559 -0.188,-0.559c0,0 0.142,0.193 0.323,0.496c0.181,0.303 0.41,0.713 0.613,1.135c0.205,0.422 0.383,0.856 0.507,1.186c0.124,0.33 0.187,0.559 0.187,0.559" fill="#605579" stroke="none" stroke-width="1"/><path d="M262.48,165.373c0,0 -0.172,-0.084 -0.41,-0.233c-0.237,-0.15 -0.545,-0.36 -0.835,-0.593c-0.291,-0.231 -0.564,-0.484 -0.761,-0.683c-0.198,-0.198 -0.316,-0.347 -0.316,-0.347c0,0 0.172,0.083 0.41,0.232c0.238,0.15 0.546,0.361 0.835,0.594c0.291,0.231 0.564,0.484 0.761,0.683c0.198,0.198 0.316,0.347 0.316,0.347" fill="#605579" stroke="none" stroke-width="1"/><path d="M263.226,161.952c0,0 -0.166,0.014 -0.411,0.003c-0.245,-0.011 -0.569,-0.039 -0.887,-0.096c-0.319,-0.055 -0.633,-0.137 -0.867,-0.21c-0.233,-0.073 -0.385,-0.142 -0.385,-0.142c0,0 0.166,-0.014 0.411,-0.003c0.245,0.011 0.569,0.039 0.887,0.097c0.319,0.054 0.633,0.137 0.867,0.209c0.234,0.073 0.385,0.142 0.385,0.142" fill="#605579" stroke="none" stroke-width="1"/><path d="M263.043,157.877c0,0 -0.134,0.112 -0.351,0.254c-0.217,0.141 -0.513,0.318 -0.821,0.468c-0.307,0.153 -0.628,0.279 -0.873,0.364c-0.245,0.086 -0.418,0.124 -0.418,0.124c0,0 0.135,-0.114 0.352,-0.255c0.216,-0.142 0.511,-0.318 0.82,-0.468c0.308,-0.153 0.628,-0.279 0.873,-0.364c0.245,-0.085 0.418,-0.123 0.418,-0.123" fill="#605579" stroke="none" stroke-width="1"/><path d="M261.54,153.965c0,0 -0.07,0.221 -0.204,0.539c-0.134,0.317 -0.325,0.734 -0.542,1.137c-0.215,0.405 -0.456,0.796 -0.646,1.084c-0.19,0.288 -0.336,0.47 -0.336,0.47c0,0 0.07,-0.222 0.204,-0.539c0.134,-0.318 0.325,-0.734 0.542,-1.138c0.215,-0.404 0.456,-0.794 0.646,-1.083c0.19,-0.288 0.336,-0.47 0.336,-0.47" fill="#605579" stroke="none" stroke-width="1"/><path d="M256.035,151.885c0,0 0.092,0.252 0.197,0.636c0.104,0.385 0.231,0.899 0.328,1.42c0.1,0.52 0.171,1.045 0.214,1.441c0.042,0.396 0.049,0.663 0.049,0.663c0,0 -0.091,-0.252 -0.197,-0.637c-0.105,-0.384 -0.231,-0.898 -0.327,-1.419c-0.101,-0.52 -0.171,-1.045 -0.214,-1.441c-0.042,-0.396 -0.05,-0.663 -0.05,-0.663" fill="#605579" stroke="none" stroke-width="1"/><path d="M253.745,154.252c0,0 0.161,0.141 0.377,0.371c0.217,0.23 0.494,0.545 0.747,0.878c0.256,0.331 0.489,0.679 0.654,0.947c0.165,0.268 0.258,0.46 0.258,0.46c0,0 -0.161,-0.141 -0.378,-0.371c-0.216,-0.23 -0.493,-0.545 -0.746,-0.878c-0.256,-0.331 -0.488,-0.68 -0.654,-0.947c-0.164,-0.269 -0.258,-0.46 -0.258,-0.46" fill="#605579" stroke="none" stroke-width="1"/><path d="M252.541,157.728c0,0 0.173,0.059 0.416,0.174c0.242,0.115 0.559,0.279 0.859,0.469c0.301,0.187 0.587,0.398 0.795,0.566c0.209,0.168 0.337,0.299 0.337,0.299c0,0 -0.174,-0.059 -0.416,-0.174c-0.243,-0.115 -0.559,-0.28 -0.859,-0.47c-0.301,-0.187 -0.588,-0.399 -0.796,-0.566c-0.209,-0.168 -0.336,-0.298 -0.336,-0.298" fill="#605579" stroke="none" stroke-width="1"/><path d="M252.346,161.843c0,0 0.16,-0.042 0.4,-0.073c0.24,-0.03 0.561,-0.058 0.881,-0.055c0.322,-0.001 0.642,0.027 0.882,0.059c0.24,0.032 0.4,0.075 0.4,0.075c0,0 -0.16,0.042 -0.4,0.073c-0.241,0.03 -0.561,0.057 -0.882,0.055c-0.32,0.001 -0.641,-0.028 -0.881,-0.06c-0.24,-0.032 -0.4,-0.074 -0.4,-0.074" fill="#605579" stroke="none" stroke-width="1"/><path d="M252.994,165.831c0,0 0.113,-0.157 0.305,-0.368c0.194,-0.211 0.46,-0.482 0.746,-0.732c0.283,-0.251 0.587,-0.481 0.822,-0.645c0.235,-0.165 0.406,-0.258 0.406,-0.258c0,0 -0.114,0.156 -0.307,0.368c-0.192,0.211 -0.459,0.482 -0.745,0.731c-0.284,0.252 -0.588,0.481 -0.821,0.645c-0.236,0.165 -0.406,0.259 -0.406,0.259" fill="#605579" stroke="none" stroke-width="1"/><path d="M258.77,170.141c0,0 -0.066,-0.267 -0.133,-0.67c-0.067,-0.402 -0.143,-0.94 -0.189,-1.481c-0.05,-0.54 -0.07,-1.083 -0.073,-1.491c-0.004,-0.408 0.015,-0.682 0.015,-0.682c0,0 0.066,0.267 0.134,0.669c0.068,0.403 0.143,0.941 0.189,1.481c0.049,0.541 0.068,1.084 0.072,1.492c0.004,0.408 -0.015,0.682 -0.015,0.682" fill="#605579" stroke="none" stroke-width="1"/><path d="M254.466,168.609c0,0 0.052,-0.241 0.158,-0.591c0.107,-0.349 0.261,-0.81 0.444,-1.261c0.18,-0.451 0.386,-0.891 0.553,-1.218c0.165,-0.326 0.296,-0.536 0.296,-0.536c0,0 -0.051,0.241 -0.157,0.591c-0.106,0.349 -0.262,0.81 -0.445,1.261c-0.18,0.45 -0.387,0.89 -0.552,1.218c-0.167,0.326 -0.297,0.536 -0.297,0.536" fill="#605579" stroke="none" stroke-width="1"/><path d="M258.859,160.218c0.036,0.303 -0.059,0.564 -0.213,0.582c-0.154,0.018 -0.308,-0.213 -0.344,-0.516c-0.037,-0.304 0.058,-0.565 0.212,-0.582c0.154,-0.018 0.308,0.213 0.345,0.516" fill="#ffffff" stroke="none" stroke-width="1"/></g><g><path d="M251.054,162.884c0,0 3.262,3.132 4.177,5.569c0.15,0.108 -7.633,0 -7.633,0l1.491,-4.77c0,0 0.233,1.831 1.965,-0.799" fill="#e89b60" stroke="none" stroke-width="1"/><path d="M251.054,162.884c0,0 3.262,3.132 4.177,5.569c0.15,0.108 -7.633,0 -7.633,0l1.491,-4.77c0,0 0.233,1.831 1.965,-0.799z" fill="none" stroke="#615d7a" stroke-width="0.5"/></g><g><path d="M229.916,160.773c0,-5.612 4.615,-10.161 10.308,-10.161c5.693,0 10.308,4.549 10.308,10.161c0,5.611 -4.615,10.161 -10.308,10.161c-5.693,0 -10.308,-4.55 -10.308,-10.161" fill="#c4afad" stroke="none" stroke-width="1"/><path d="M235.752,161.002c0,-2.38 1.957,-4.309 4.372,-4.309c2.415,0 4.372,1.929 4.372,4.309c0,2.381 -1.957,4.31 -4.372,4.31c-2.415,0 -4.372,-1.929 -4.372,-4.31" fill="#fccf87" stroke="none" stroke-width="1"/><path d="M243.742,161.112c0,1.498 -1.232,2.713 -2.752,2.713c-1.52,0 -2.752,-1.215 -2.752,-2.713c0,-1.498 1.232,-2.713 2.752,-2.713c1.52,0 2.752,1.215 2.752,2.713" fill="#362f52" stroke="none" stroke-width="1"/><path d="M235.752,160.915c0,-2.38 1.957,-4.309 4.372,-4.309c2.415,0 4.372,1.929 4.372,4.309c0,2.38 -1.957,4.309 -4.372,4.309c-2.415,0 -4.372,-1.929 -4.372,-4.309z" fill="none" stroke="#605579" stroke-width="0.5"/><path d="M229.854,160.804c0,-5.618 4.62,-10.172 10.319,-10.172c5.7,0 10.319,4.554 10.319,10.172c0,5.617 -4.619,10.172 -10.319,10.172c-5.699,0 -10.319,-4.555 -10.319,-10.172z" fill="none" stroke="#605579" stroke-width="0.5265"/><path d="M241.278,155.971c0,0 0.02,-0.275 0.079,-0.682c0.062,-0.407 0.155,-0.947 0.279,-1.48c0.121,-0.533 0.27,-1.06 0.392,-1.453c0.123,-0.393 0.226,-0.65 0.226,-0.65c0,0 -0.019,0.275 -0.079,0.682c-0.061,0.407 -0.155,0.947 -0.279,1.48c-0.121,0.533 -0.271,1.06 -0.393,1.453c-0.123,0.393 -0.225,0.65 -0.225,0.65" fill="#605579" stroke="none" stroke-width="1"/><path d="M238.207,170.266c0,0 0.011,-0.276 0.058,-0.685c0.049,-0.408 0.126,-0.95 0.233,-1.486c0.105,-0.537 0.237,-1.068 0.348,-1.465c0.111,-0.396 0.206,-0.656 0.206,-0.656c0,0 -0.011,0.276 -0.058,0.684c-0.049,0.409 -0.127,0.951 -0.234,1.487c-0.104,0.537 -0.238,1.068 -0.348,1.464c-0.111,0.397 -0.205,0.657 -0.205,0.657" fill="#605579" stroke="none" stroke-width="1"/><path d="M246.031,168.453c0,0 -0.21,-0.184 -0.499,-0.481c-0.288,-0.297 -0.663,-0.701 -1.014,-1.124c-0.353,-0.421 -0.684,-0.86 -0.924,-1.196c-0.24,-0.338 -0.383,-0.575 -0.383,-0.575c0,0 0.209,0.184 0.499,0.481c0.289,0.296 0.663,0.7 1.014,1.124c0.353,0.421 0.684,0.861 0.924,1.197c0.239,0.336 0.383,0.574 0.383,0.574" fill="#605579" stroke="none" stroke-width="1"/><path d="M248.513,165.514c0,0 -0.269,-0.078 -0.66,-0.223c-0.389,-0.146 -0.904,-0.353 -1.405,-0.586c-0.503,-0.231 -0.993,-0.488 -1.356,-0.69c-0.363,-0.203 -0.596,-0.357 -0.596,-0.357c0,0 0.269,0.077 0.659,0.223c0.391,0.145 0.905,0.353 1.406,0.586c0.503,0.231 0.993,0.488 1.356,0.69c0.363,0.203 0.596,0.357 0.596,0.357" fill="#605579" stroke="none" stroke-width="1"/><path d="M249.804,162.093c0,0 -0.28,0.014 -0.697,0.004c-0.417,-0.011 -0.971,-0.039 -1.523,-0.096c-0.551,-0.054 -1.1,-0.137 -1.511,-0.21c-0.41,-0.073 -0.681,-0.143 -0.681,-0.143c0,0 0.28,-0.014 0.696,-0.004c0.418,0.011 0.972,0.039 1.524,0.096c0.551,0.054 1.1,0.138 1.511,0.211c0.41,0.073 0.681,0.142 0.681,0.142" fill="#605579" stroke="none" stroke-width="1"/><path d="M249.488,158.018c0,0 -0.256,0.116 -0.646,0.259c-0.39,0.144 -0.916,0.322 -1.449,0.472c-0.532,0.152 -1.072,0.277 -1.481,0.361c-0.408,0.083 -0.687,0.118 -0.687,0.118c0,0 0.255,-0.117 0.646,-0.26c0.39,-0.144 0.916,-0.321 1.449,-0.472c0.532,-0.152 1.072,-0.276 1.481,-0.36c0.409,-0.083 0.687,-0.118 0.687,-0.118" fill="#605579" stroke="none" stroke-width="1"/><path d="M246.886,154.106c0,0 -0.155,0.23 -0.411,0.554c-0.258,0.324 -0.61,0.747 -0.985,1.15c-0.372,0.404 -0.767,0.79 -1.071,1.071c-0.303,0.281 -0.522,0.455 -0.522,0.455c0,0 0.155,-0.231 0.412,-0.555c0.257,-0.324 0.61,-0.746 0.984,-1.148c0.373,-0.405 0.768,-0.79 1.071,-1.072c0.304,-0.281 0.522,-0.455 0.522,-0.455" fill="#605579" stroke="none" stroke-width="1"/><path d="M237.363,152.026c0,0 0.126,0.247 0.284,0.627c0.157,0.381 0.355,0.892 0.524,1.413c0.172,0.519 0.315,1.048 0.413,1.447c0.098,0.4 0.142,0.673 0.142,0.673c0,0 -0.126,-0.247 -0.285,-0.627c-0.157,-0.381 -0.355,-0.892 -0.523,-1.413c-0.172,-0.52 -0.315,-1.048 -0.413,-1.448c-0.097,-0.399 -0.142,-0.672 -0.142,-0.672" fill="#605579" stroke="none" stroke-width="1"/><path d="M233.399,154.393c0,0 0.246,0.133 0.596,0.357c0.349,0.224 0.807,0.534 1.247,0.867c0.441,0.33 0.865,0.684 1.176,0.958c0.311,0.274 0.505,0.474 0.505,0.474c0,0 -0.246,-0.133 -0.596,-0.357c-0.35,-0.223 -0.807,-0.534 -1.247,-0.867c-0.441,-0.331 -0.864,-0.685 -1.176,-0.958c-0.311,-0.275 -0.505,-0.474 -0.505,-0.474" fill="#605579" stroke="none" stroke-width="1"/><path d="M231.317,157.869c0,0 0.275,0.054 0.676,0.166c0.401,0.113 0.932,0.275 1.452,0.464c0.521,0.188 1.032,0.402 1.412,0.573c0.378,0.171 0.624,0.305 0.624,0.305c0,0 -0.275,-0.055 -0.677,-0.167c-0.401,-0.112 -0.931,-0.274 -1.451,-0.464c-0.521,-0.187 -1.032,-0.402 -1.411,-0.573c-0.38,-0.171 -0.625,-0.304 -0.625,-0.304" fill="#605579" stroke="none" stroke-width="1"/><path d="M230.979,161.984c0,0 0.277,-0.042 0.693,-0.073c0.416,-0.03 0.97,-0.058 1.525,-0.055c0.554,-0.001 1.109,0.027 1.525,0.059c0.416,0.032 0.692,0.075 0.692,0.075c0,0 -0.276,0.042 -0.693,0.073c-0.415,0.031 -0.97,0.057 -1.524,0.055c-0.555,0.001 -1.109,-0.028 -1.525,-0.06c-0.416,-0.032 -0.693,-0.074 -0.693,-0.074" fill="#605579" stroke="none" stroke-width="1"/><path d="M232.1,165.972c0,0 0.227,-0.163 0.582,-0.379c0.356,-0.215 0.835,-0.49 1.329,-0.74c0.492,-0.251 0.998,-0.477 1.382,-0.637c0.384,-0.159 0.65,-0.247 0.65,-0.247c0,0 -0.226,0.163 -0.581,0.378c-0.355,0.216 -0.836,0.491 -1.329,0.74c-0.492,0.252 -0.998,0.477 -1.382,0.637c-0.385,0.16 -0.651,0.248 -0.651,0.248" fill="#605579" stroke="none" stroke-width="1"/><path d="M242.095,170.282c0,0 -0.083,-0.264 -0.177,-0.665c-0.093,-0.401 -0.203,-0.937 -0.284,-1.478c-0.083,-0.54 -0.139,-1.084 -0.169,-1.494c-0.029,-0.411 -0.028,-0.687 -0.028,-0.687c0,0 0.083,0.264 0.177,0.664c0.093,0.401 0.203,0.938 0.283,1.478c0.084,0.541 0.138,1.086 0.169,1.495c0.03,0.41 0.029,0.687 0.029,0.687" fill="#605579" stroke="none" stroke-width="1"/><path d="M234.648,168.75c0,0 0.122,-0.25 0.331,-0.605c0.209,-0.356 0.5,-0.822 0.814,-1.272c0.313,-0.452 0.649,-0.887 0.91,-1.207c0.263,-0.32 0.454,-0.522 0.454,-0.522c0,0 -0.121,0.249 -0.33,0.605c-0.209,0.356 -0.5,0.822 -0.814,1.272c-0.313,0.452 -0.65,0.886 -0.911,1.207c-0.262,0.32 -0.454,0.522 -0.454,0.522" fill="#605579" stroke="none" stroke-width="1"/><path d="M242.888,160.251c0,0.305 -0.251,0.553 -0.561,0.553c-0.31,0 -0.561,-0.248 -0.561,-0.553c0,-0.306 0.251,-0.553 0.561,-0.553c0.31,0 0.561,0.247 0.561,0.553" fill="#ffffff" stroke="none" stroke-width="1"/></g><g><path d="M258.458,173.969l2.57284,13.01937c-0.49985,0.32428 -0.94143,0.70418 -1.27691,1.10986c-1.41724,-4.48674 -2.54881,-10.04911 -1.29593,-14.12923z" fill="#a77e76" stroke="none" stroke-width="1"/><path d="M250.758,166.053c-0.071,-1.239 0.832,-1.656 0.832,-1.656c0.051,1.278 -0.832,1.656 -0.832,1.656" fill="#615d7a" stroke="none" stroke-width="1"/><path d="M259.72475,188.13391c-1.42219,-4.56779 -2.57054,-10.20158 -1.39875,-14.30691" fill="none" stroke="#362f52" stroke-width="0.5"/></g><g><path d="M224.733,169.042c4.592,-0.292 19.53,3.259 19.074,21.328l-1.92944,2.32623c-0.15924,-0.01794 -0.31271,-0.04162 -0.45811,-0.07393c-1.29711,-0.28825 -2.85109,-0.34133 -4.4411,-0.43857c-0.9842,-0.55498 -2.35752,-0.70961 -3.66638,-0.90685c-0.85896,-0.65785 -2.03427,-1.05389 -3.23527,-1.11946c-0.01047,-0.0099 -0.02085,-0.0199 -0.03112,-0.02999c-0.17518,-0.26983 -0.40099,-0.50376 -0.66397,-0.68831c-0.24816,-0.23112 -0.52869,-0.43899 -0.8237,-0.51424c-2.43806,-2.09635 -5.67989,-3.92509 -8.27525,-5.69483c-0.91904,-0.62668 -1.45357,-1.67566 -2.13568,-2.51054c2.27039,-6.83881 6.58601,-11.67752 6.58601,-11.67752z" fill="#a77e76" stroke="none" stroke-width="1"/><path d="" fill="#a77e76" stroke="none" stroke-width="1"/><path d="" fill="#a77e76" stroke="none" stroke-width="1"/><path d="" fill="#a77e76" stroke="none" stroke-width="1"/><path d="" fill="#a77e76" stroke="none" stroke-width="1"/><path d="M242.24177,197.80887c-0.00234,0.00597 -0.00468,0.01194 -0.00703,0.01791l-0.00817,-0.0029z" fill="#a77e76" stroke="none" stroke-width="1"/><path d="" fill="#784451" stroke="none" stroke-width="1"/><path d="" fill="#784451" stroke="none" stroke-width="1"/><path d="M218.17284,180.75135c2.30804,-7.32787 6.61616,-11.67835 6.61616,-11.67835c2.131,-0.323 18.953,1.555 18.953,20.651c0,1.03633 -0.07934,2.05797 -0.22941,3.06347" fill="none" stroke="#362f52" stroke-width="0.5"/><path d="" fill="#362f52" stroke="none" stroke-width="1"/><path d="" fill="#362f52" stroke="none" stroke-width="1"/><path d="" fill="#362f52" stroke="none" stroke-width="1"/><path d="" fill="#362f52" stroke="none" stroke-width="1"/><path d="" fill="#362f52" stroke="none" stroke-width="1"/><path d="" fill="#362f52" stroke="none" stroke-width="1"/></g><path d="M274.95878,161.39627c0,-17.26939 -14.12804,-31.269 -31.55587,-31.269c-17.42783,0 -31.55588,13.99961 -31.55588,31.269c0,17.26939 14.12805,31.269 31.55588,31.269c17.42783,0 31.55587,-13.99961 31.55587,-31.269z" fill="none" stroke="#000000" stroke-width="0.5"/></g></g></svg>