<svg version="1.0" xmlns="http://www.w3.org/2000/svg"
 width="512.000000pt" height="512.000000pt" viewBox="0 0 512.000000 512.000000"
 preserveAspectRatio="xMidYMid meet">

<g transform="translate(0.000000,512.000000) scale(0.100000,-0.100000)"
fill="null">
<path d="M2115 3829 c-297 -31 -602 -133 -863 -288 -158 -93 -284 -192 -423
-330 -180 -181 -297 -346 -409 -576 -128 -264 -194 -514 -207 -787 l-6 -128
206 0 c240 0 212 -18 221 141 21 378 224 806 512 1080 469 444 1129 594 1734
393 499 -166 904 -563 1074 -1053 20 -57 35 -105 34 -106 -2 -2 -142 55 -313
126 -170 71 -312 129 -315 129 -7 0 -164 -379 -159 -384 2 -2 110 -47 239
-101 129 -53 379 -157 555 -230 493 -205 547 -226 549 -223 2 2 127 302 278
668 l276 665 -42 19 c-22 11 -109 47 -193 82 l-151 62 -148 -356 c-81 -197
-150 -361 -154 -365 -4 -5 -24 42 -45 105 -266 802 -965 1366 -1807 1457 -111
13 -325 12 -443 0z"/>
<path d="M2210 1678 c-125 -44 -224 -144 -266 -270 -23 -69 -23 -187 0 -256
100 -299 478 -391 699 -170 208 208 146 556 -120 681 -93 43 -216 49 -313 15z"/>
</g>
</svg>
